<?xml version="1.0" standalone="no"?>
<!DOCTYPE svg PUBLIC "-//W3C//DTD SVG 20010904//EN"
 "http://www.w3.org/TR/2001/REC-SVG-20010904/DTD/svg10.dtd">
<svg version="1.0" xmlns="http://www.w3.org/2000/svg"
 width="300.000000pt" height="300.000000pt" viewBox="0 0 300.000000 300.000000"
 preserveAspectRatio="xMidYMid meet">
<metadata>
Created by potrace 1.11, written by Peter Selinger 2001-2013
</metadata>
<g transform="translate(0.000000,300.000000) scale(0.100000,-0.100000)"
fill="#000000" stroke="none">
<path d="M700 2970 c-20 -20 -20 -33 -20 -1465 0 -1432 0 -1445 20 -1465 20
-20 33 -20 805 -20 772 0 785 0 805 20 20 20 20 33 20 1465 0 1432 0 1445 -20
1465 -20 20 -33 20 -805 20 -772 0 -785 0 -805 -20z m1383 -181 c14 -6 30 -22
36 -36 16 -34 16 -1562 0 -1596 -6 -14 -22 -30 -36 -36 -34 -15 -1122 -15
-1156 0 -14 6 -30 22 -36 36 -16 34 -16 1562 0 1597 6 13 21 29 33 34 30 15
1127 16 1159 1z"/>
</g>
</svg>
